<svg xmlns="http://www.w3.org/2000/svg" width="256" height="256" viewBox="0 0 256 256">
<!-- SVG created with Arrow, by QuiverAI (https://quiver.ai) -->
  <path d="m33.78 25.91c-9.86 0.51-16.57 9.28-16.42 17.01 0.18 8.91 6.56 13.99 14.96 13.99 9.86 0 17.69-8 16.67-17.99-0.78-7.8-6.92-13.44-15.21-13.01z" fill="#000"/>
  <path d="m52.18 56.79c-5.54 6.82-11.44 8.28-21.34 9.63-8.42 1.17-10.16 6.77-9.52 14.51 0.47 5.76 1.57 8.48 0.94 15.78-1.4 13.73-14.34 22.5-16.38 34.44-1.97 11.34 5.83 20.11 16.38 20.11 12.39 0 20.68-10.95 20.91-24.17 0.14-8.31-2.1-17.21-1.48-29.03 0.72-13.64 4.8-24.87 10.52-35.5 0.95-1.87 1.6-4.33 0.78-5.77h-0.81z" fill="#000"/>
  <path d="m218 122c-18.01-0.59-33.75 13.92-53.96 17.5-13.86 2.7-26.19-0.24-29.06-10.76-2.53-9.36 3.7-17.87 12.6-29.81 7.47-9.98 11.13-22.78 6.08-33.2-4.38-8.72-13.61-11.82-21.9-10.9-15.63 1.87-21.96 13.87-28.88 27.25-1.24 2.57-2.52 5.14-3.59 6.17 1.59-4.34 4.57-13.35 3.17-19.55-2.21-10.31-10.28-14.79-20.38-13.76-15.95 1.76-28.06 15.11-30.82 32.77-2.87 16.56 1.15 31.39-4.68 48.06-3.78 10.95-10.38 19.85-10.38 31.67s9.06 18.74 19.27 18.41c14.31-0.43 24.41-13.02 25.23-26.3 1.05-16.45-9.61-31.35-15.33-50.45-2.65-8.77-2.65-21.07 6-25.3 6.61-3.24 12.51 1.34 13.61 6.83 1.74 8.3-2.79 15.44-5.44 22.14-3.3 9.23-0.54 20.18 11.35 20.93 9.86 0 15.29-8.07 15.18-16.84-0.11-6.54-1.96-13.08 0.57-21.96 2.04-6.65 7.58-11.73 14.74-10.49 6.32 1.35 7.72 8.39 6.66 14.3-2.88 15.09-13.35 24.61-21.97 37.2-7.47 10.95-7.36 25.04 1.43 32.78 9.64 7.04 24.15 0 35.27-6.06 16.56-10.42 34.18-20.4 53.85-22.54 9.65-0.92 18.54 2.51 19.94 10.03 0.72 5.28-1.4 8.37-8.76 8.37-8.18 0-12.56-1.76-23.11-1.33-23.4 0.75-50.33 11.96-67.95 30.05-8.29 8.17-12.99 15.48-12.52 25.68 0.47 10.95 9.16 19.25 21.56 19.25 13.39 0 21.68-6.2 32.15-13.12 11.89-8.3 21.88-15.34 41.9-20.83 20.03-4.69 38.81-17.17 45.73-34.39 7.16-18.45-1.74-40.97-27.56-41.8zm-28.11 72.39c-12.4 5.08-23.73 12-38.24 12.52-10.47 0.43-18.3-4.65-18.77-12.3-0.47-9.99 8.41-17.03 23.15-17.03 13.39 0 27.48 7.42 34.4 14.83 1.51 1.56 1.79 1.34-0.54 1.98z" fill="#000"/>
  <path d="m200.2 53.08c-23.14 0-41.18 26.11-46.4 44.76-5.11 17.55-0.98 33.02 15.32 33.02 16.77 0 43.23-17.11 53.9-38.05 7.47-15.47-0.16-39.73-22.82-39.73zm-13.05 62.2c-9.65 0-17.37-11.33-17.37-20.56 0-9.01 5.82-15.21 14.72-15.21 10.36 0 15.7 10.52 15.7 19.65s-5.23 16.12-13.05 16.12z" fill="#000"/>
  <path d="m247.5 54.73c-3.78-1.87-4.6 3.1-9.41 3.43-4.2 0.29-5.81-1.45-8.79-3.1 6.71-2.57 18.88-4.44 18.88-16.15 0-9.69-8.29-16.12-16.58-16.12-9.34-0.53-16.41 6.64-16.41 14.28 0 5.28 2.76 8.53 6.96 8.53 3.78 0 6.11-2.57 6.11-7.27 0-3.52 1.61-5.39 4.7-5.39 3.2 0 4.7 2.34 4.7 5.07 0 6.09-6.48 10.21-21 15.7-2.42 1.02-1.95 1.46-0.55 2.1 7.58 3.1 10.78 14.16 23.83 14.48 7.72 0 11.13-5.64 11.13-9.6 0-2.86-1.4-5-3.57-5.96z" fill="#000"/>
</svg>