<svg xmlns="http://www.w3.org/2000/svg" viewBox="0 0 834 834" width="834" height="834">
<g transform="translate(0,834) scale(0.1,-0.1)" fill="#000000" stroke="none">
<path d="M3509 6883 c-92 -24 -189 -81 -264 -158 -55 -56 -86 -101 -146 -211
-42 -76 -143 -258 -224 -404 -81 -146 -181 -328 -223 -405 -41 -77 -128 -232
-192 -345 -111 -193 -315 -558 -595 -1065 -67 -121 -232 -416 -367 -655 -135
-239 -302 -538 -373 -665 -70 -126 -135 -238 -144 -248 -8 -10 -40 -30 -70
-45 -35 -16 -85 -55 -137 -106 -66 -66 -89 -97 -122 -166 -55 -117 -67 -174
-67 -320 0 -105 4 -137 24 -199 47 -143 177 -299 308 -369 126 -67 292 -93
433 -68 102 18 242 84 315 148 l49 43 516 5 516 5 42 28 c111 73 134 217 49
313 -16 20 -48 45 -71 56 -39 20 -53 21 -449 19 -301 -2 -412 1 -423 10 -8 7
-14 30 -14 59 0 69 -34 191 -77 273 -49 96 -173 220 -260 261 -34 16 -64 34
-66 41 -3 6 69 141 160 300 197 346 952 1700 1138 2040 170 311 371 670 402
718 l24 38 56 -51 c59 -54 133 -96 220 -124 29 -10 55 -22 59 -27 3 -6 -57
-121 -134 -257 -77 -136 -226 -400 -332 -587 -106 -187 -268 -473 -360 -635
-92 -162 -269 -478 -394 -703 -125 -224 -259 -460 -298 -525 -82 -135 -98
-176 -98 -244 0 -89 65 -173 154 -197 29 -9 199 -11 588 -9 l546 3 44 30 c23
17 57 53 75 80 18 28 38 58 45 68 12 17 52 18 797 17 452 0 790 -4 800 -10 16
-8 234 -388 418 -730 90 -166 116 -200 178 -233 39 -22 51 -22 551 -27 l511
-5 52 -47 c110 -99 261 -152 436 -152 130 -1 214 21 313 81 125 76 201 158
261 281 47 97 56 145 55 302 0 124 -3 154 -22 205 -54 143 -151 266 -278 348
-83 54 -89 61 -144 162 -23 44 -145 260 -270 480 -125 220 -289 513 -365 650
-76 138 -190 345 -255 460 -65 116 -162 293 -217 395 -121 224 -465 843 -566
1018 -40 70 -167 298 -283 507 -228 414 -258 455 -365 507 -31 15 -88 32 -125
37 -38 6 -344 12 -681 14 -485 3 -623 1 -664 -10z m278 -412 c85 -44 136 -127
135 -221 -1 -125 -71 -205 -202 -230 -71 -13 -134 8 -187 62 -58 61 -77 102
-77 173 -2 177 179 295 331 216z m1031 -68 c170 -295 861 -1531 1087 -1943 65
-118 166 -301 226 -407 300 -530 729 -1308 729 -1324 0 -10 -9 -20 -20 -24
-43 -14 -168 -105 -216 -158 -93 -102 -149 -232 -162 -377 l-7 -85 -55 -7
c-91 -10 -579 -9 -600 2 -10 5 -38 45 -61 87 -23 43 -117 213 -209 378 -92
165 -183 330 -203 366 -20 36 -51 80 -68 97 -67 66 -11 63 -1110 60 l-996 -3
-49 -30 c-33 -21 -60 -48 -82 -85 -17 -30 -39 -58 -46 -62 -8 -5 -119 -7 -246
-6 l-230 3 163 285 163 285 945 5 c882 5 947 6 984 23 85 38 135 112 135 199
0 60 -28 128 -109 262 -27 45 -105 182 -174 306 -115 208 -422 759 -651 1168
-53 95 -96 174 -96 177 0 2 48 27 108 56 93 45 118 62 188 133 101 102 167
226 185 346 13 85 6 220 -15 279 -9 28 -10 43 -3 50 7 7 90 11 234 11 l222 0
39 -67z m-1061 -1505 c28 -46 79 -135 113 -198 35 -63 150 -269 256 -457 107
-188 194 -347 194 -352 0 -8 -190 -11 -620 -11 -460 0 -620 3 -620 11 0 7 116
217 257 468 304 540 351 621 362 621 5 0 31 -37 58 -82z m3463 -2582 c59 -29
106 -91 120 -161 23 -110 -32 -219 -135 -266 -48 -22 -142 -25 -188 -6 -120
51 -180 199 -126 317 59 131 198 180 329 116z m-5883 3 c116 -56 165 -196 109
-315 -57 -123 -204 -171 -327 -106 -80 42 -113 94 -117 187 -3 61 0 82 18 120
25 51 81 103 131 121 55 20 137 17 186 -7z"/>
<path d="M4515 5704 c-94 -51 -140 -152 -112 -245 8 -24 104 -201 213 -394
110 -192 267 -473 349 -623 83 -150 163 -289 179 -309 77 -93 243 -99 322 -11
39 42 54 84 54 150 0 71 40 -5 -455 873 -281 498 -289 511 -337 543 -52 34
-164 43 -213 16z"/>
<path d="M5656 3736 c-22 -8 -51 -23 -65 -33 -34 -25 -81 -118 -81 -160 0 -42
54 -159 162 -348 47 -82 143 -258 213 -390 71 -131 144 -256 163 -277 46 -51
106 -72 182 -65 119 10 194 87 194 197 1 61 16 30 -209 435 -70 127 -164 298
-208 380 -44 83 -92 165 -105 183 -55 73 -166 108 -246 78z"/>
</g>
</svg>
