<svg xmlns="http://www.w3.org/2000/svg" width="250" height="250" viewBox="0 0 250 250">
<!-- SVG created with Arrow, by QuiverAI (https://quiver.ai) -->
  <path d="m21.39 150.9-0.12 22.47c-0.04 6.29 3.24 10.92 8.91 14.4l80.75 51.9c9.14 5.92 21.88 4.15 27.56 0l81.79-52.56c5.81-3.59 8.13-8.94 8.09-13.38l-0.14-23.71-206.8 0.88z" fill="#407162"/>
  <path d="m110.9 215.1-81-51.2c-4.79-3-8.7-6.23-8.66-12.95 0.04-6.55 3.59-12 10.45-15.04l81.3-39.75c7.59-3.68 15.9-3.83 23.6 0.05l81.59 39.82c6.7 3.32 10.17 8.84 10.12 15.12-0.04 5.93-2.92 9.55-9.24 13.51l-80.6 50.44c-8.48 4.87-20.28 4.6-27.56 0z" fill="#54897A"/>
  <path d="m35.61 114.7-0.11 20.26c-0.04 5.93 2.49 10.2 9.19 13.82l68.23 42.94c8.49 5.25 17.57 2.78 23.53-1.4l69.62-43.42c5.81-3.28 6.9-8.21 6.94-12.31l0.12-18.86-177.5-1.03z" fill="#C94549"/>
  <path d="m111.9 170.6-68.84-44.78c-5.13-3.32-7.58-6.64-7.54-11.22 0.04-5.68 2.12-8.05 8.21-11.45l69.25-41.48c7.2-4.29 16.16-4.13 23.16 0.04l70.19 42.2c4.87 2.96 6.86 6.44 6.82 11.8-0.04 5.19-2.51 8.19-8.18 11.81l-66.78 42.69c-7.85 4.49-18.05 5.29-26.29 0.39z" fill="#D55A5B"/>
  <path d="m50.18 82.9-0.12 17.11c-0.04 5.19 2.05 8.47 7.76 11.95l55.9 35.01c8.05 5.11 16.37 3.09 21.92-0.61l58.14-35.89c5.4-3.32 6.23-7.06 6.27-11.16l-0.28-17.09-149.6 0.68z" fill="#509CBC"/>
  <path d="m114.8 129.4-58.69-37.07c-4.33-2.76-6.3-5.31-6.26-9.72 0.04-4.75 1.85-7.55 7.35-10.51l56.71-33.3c6.5-3.74 14.01-3.58 20.37 0.2l59.69 34.63c4.37 2.63 5.75 5.43 5.71 10.22-0.04 4.62-2.06 6.95-7.11 10.27l-55.49 34.59c-6.17 3.66-15.8 4.61-22.28 0.69z" fill="#6BB3D4"/>
  <path d="m64.87 55.09-0.12 13.37c-0.04 3.73 1.38 5.75 5.63 8.47l46.1 29.03c6.03 3.78 13.69 2.05 18.01-0.95l47.24-29.94c3.8-2.21 3.36-5.21 3.4-8.17l-0.12-13.29-120.1 1.48z" fill="#F2A3B0"/>
  <path d="m115.9 92.69-45.7-28.98c-3.48-2.23-5.19-4.5-5.15-8.28 0.04-4.18 1.47-6.94 6-9.61l22.76-15c5.28-3.36 13.15-3.76 18.92-0.64l34.16-0.12c3.8-2.08 8.21-1.4 11.81 0.96l21.99 15.4c4.17 2.55 4.54 5.31 4.5 9.29-0.04 3.62-1.55 5.85-5.83 8.73l-45.25 27.49c-5.21 3.16-13.21 3.68-18.21 0.76z" fill="#FFC0CB"/>
  <path d="m125 66.22c16.59 0 29.61-14.61 29.61-29.61 0-15.88-13.02-30.13-29.61-30.13-16.27 0-28.78 13.61-28.78 30.13 0 15.64 12.51 29.61 28.78 29.61z" fill="#D6DFE1"/>
</svg>
