<svg xmlns="http://www.w3.org/2000/svg" width="256" height="256" viewBox="0 0 256 256">
<!-- SVG created with Arrow, by QuiverAI (https://quiver.ai) -->
  <path d="m129.5 7.71 119 69.1-12.49 111.4-107.7 60.45-112.9-3.89 60.71-130-67.14-102.8 120-3.87 0.49-0.48z" fill="#DCE5E5"/>
  <path d="m7.65 9.79 121.5-1.67 0.13 0.39 119.3 68.23-0.87 0.35-86.17-15.88-32.38-53.5-119 4.23-2.41-2.15z" fill="#DCE5E5"/>
  <path d="m161.5 60.51 87.04 16.1-66.59 53.13-4.1-37.46-16.35-31.77z" fill="#497565"/>
  <path d="m248.5 76.61-49.84 50.45-19.91 18.88-1.04-54.43 70.79-14.9z" fill="#D35A5B"/>
  <path d="m180.6 144.9 53.58 42.81-106 60.95 32.72-54.53 19.7-49.23z" fill="#497565"/>
  <path d="m177.6 92.22 2.45 52.74-52.74-41.6 50.29-11.14z" fill="#497565"/>
  <path d="m126.4 103.9-46.34 9.76 2.72 47.41 43.62-57.17z" fill="#497565"/>
  <path d="m127.4 103.4 51.3 42.58-24.01 48.9-38.72-18.74-21.2-32.24 32.63-40.5z" fill="#FCC5CF"/>
  <path d="m116 176.1 62.73-30.16-24.21 48.9-38.52-18.74z" fill="#68B2D2"/>
  <path d="m80.42 114.8-69.2 11.64-2.21 2.41 73.18 34.05-1.77-48.1z" fill="#DCE5E5"/>
  <path d="m80.22 162-59 75.38-1.21 3.5 77.6-51.29 0.4-1.28-14.2-24.63-3.59-1.68z" fill="#FCC5CF"/>
  <path d="m158.9 60.86-29.45-52.21-16.75 36.36 46.2 15.85z" fill="#FCC5CF"/>
  <path d="m158.9 60.86-31.6 42.5-31.13-24.43 16.53-33.92 46.2 15.85z" fill="#FCC5CF"/>
  <path d="m96.19 78.93-16.18 34.73 46.71-9.96-30.53-24.77z" fill="#FCC5CF"/>
  <path d="m128.7 6.63-1.61 1.88 1.54 2.42 102.8 171.9-220.7-170.6-2.58-2.42 2.18 3.34 117.5 236.5 0.6-0.28 108.3-60.64 0.77-0.77-108.8-181.3zm0 4.7 102.2 170.8-209.1-167.2 106.9-3.59z" fill="#68A6C6"/>
  <path d="m128.3 7.04-120.2 120.7 0.06 1.68 239.7 109.4 0.94-2.35-236.5-108.4 117.8-118.9-1.71-2.08z" fill="#C55A5D"/>
  <path d="m7.75 9.72 120.2 239.8 1.98-1.07-1.44-2.25-117.3-233.3-3.52-3.2z" fill="#507A6A"/>
</svg>