<svg xmlns="http://www.w3.org/2000/svg" width="250" height="250" viewBox="0 0 250 250">
<!-- SVG created with Arrow, by QuiverAI (https://quiver.ai) -->
  <path d="m180.1 6.59h-55.07v173.4h55.07v-173.4z" fill="#D15A5C"/>
  <path d="m6.45 124.8v55.27h93.68v-55.27h-93.68z" fill="#D15A5C"/>
  <path d="m69.08 124.8v118.7h26.63v-118.7h-26.63z" fill="#4D7A6A"/>
  <path d="m95.71 22.68c-39.58 0-73.34 32.07-73.34 74.33 0 39.9 32.74 72.33 73.34 72.33 35.71 0 67.5-29.55 67.5-72.33 0-39.42-30.77-74.33-67.5-74.33z" fill="#67B0D1"/>
  <path d="m125 69.02v100.3h118.2v-100.3h-118.2z" fill="#497A69"/>
  <path d="m125 69.02c-27.84 0-49.19 23.73-49.19 51.12 0 26.55 21.61 49.2 49.19 49.2v-100.3z" fill="#FBC7D4"/>
  <path d="m176.1 124.3c-27.35 0-51.43 22.94-51.43 51.91 0 26.94 22.66 49.68 50.73 49.68 15.74 0 29.47-7.92 38.07-17.69-25.73-4-44.89-27.09-44.89-53.74 0-10.62 2.87-20.62 7.52-30.16z" fill="#D8DFE0"/>
  <path d="m225.7 108.2v88.88c-25.69 0-44.59-20.27-44.59-43.01 0-22.99 18.1-45.87 44.59-45.87z" fill="#FBC7D4"/>
</svg>