<svg xmlns="http://www.w3.org/2000/svg" width="250" height="250" viewBox="0 0 250 250">
<!-- SVG created with Arrow, by QuiverAI (https://quiver.ai) -->
  <path d="m75.81 102.3c-24.63 0-44.89-20.6-44.89-44.2 0-24.16 19.89-45.35 44.89-45.35 19.12 0 35.2 12.1 41.71 28.07l-2.36 0.97c-6.09-15.02-20.65-26.54-39.35-26.54-23.52 0-42.5 19.88-42.5 42.85 0 22.27 19.04 41.7 42.5 41.7v2.5z" fill="#F9C5CE"/>
  <path d="m75.81 86.16c16.15 0 29.81-13.28 29.81-28.1 0-15.67-12.86-29.85-29.81-29.85-16.7 0-29.22 13.46-29.22 29.85 0 15.17 12.39 28.1 29.22 28.1z" fill="#F9C5CE"/>
  <path d="m202.8 236.3c-22.28 0-39.7-18.37-40.06-38.67l2.92-0.05c0.43 18.74 16.49 35.86 37.14 35.86 21.29 0 38.51-18.22 38.51-37.3 0-19.3-15.72-36.97-38.51-37.31v-2.59c23.81 0.35 41.42 18.89 41.42 39.9 0 20.89-18.67 40.16-41.42 40.16z" fill="#D7DFE1"/>
  <path d="m204.8 222.3c14.68-0.63 25.68-13.45 25.68-26.28 0-13.89-11.65-26-27.72-26-14.68 0-25.32 11.87-25.32 26 0 13.36 11.17 26.28 27.36 26.28z" fill="#F9C5CE"/>
  <path d="m205 134.5c22.27-0.75 38.84-19.64 38.84-37.61 0-20.66-16.77-38.55-38.84-38.55-21.55 0-38.32 17.44-38.32 37.89 0 19.01 15.74 38.27 38.32 38.27z" fill="#4A7B6A"/>
  <path d="m156.7 96.49h-2.21c0-26.32 20.64-50.24 50.2-50.24 13 0 23.25 4.13 33.51 12.36l-1.73 2.12c-8.98-7.87-18.71-12.09-31.78-12.09-27.6 0-47.99 22.17-47.99 47.85z" fill="#437162"/>
  <path d="m67.22 168.6-0.03 34.51 2.22 0.01-1.55-34.82-0.64 0.3z" fill="#D7DFE1"/>
  <path d="m100.7 96.28h103.6v104.2h-103.6v-104.2z" fill="#D45B5D"/>
  <path d="m66.91 212.8 109.1-193.5-72.58 29.39-0.9-2.39 77.58-31.46-113.8 198.7 0.62-0.75z" fill="#D7DFE1"/>
  <path d="m31.35 148.1v13.06c-8.7 0-14.06 6.67-14.06 12.73 0 7.5 5.82 13.29 13.15 13.29 7.25 0 10.97-3.6 12.97-7.13l10.4 5.65c-5.62 9.49-13.9 13.41-23.09 13.41-13.43 0-24.72-10.73-24.72-24.73 0-12.5 10.05-26.28 24.72-26.28h0.63z" fill="#4A7B6A"/>
  <path d="m66.61 226.3c8.9 1.04 13.97-6.28 13.97-13.08 0-8.17-6.83-13.2-13.39-13.2-8.36 0-13.28 7.25-13.28 13.2 0 7.25 5.35 13.08 12.7 13.08z" fill="#4A7B6A"/>
  <path d="m31.35 173.9 44.6-115.9 76.7 96.98-121.3 18.88z" fill="#69B0D1"/>
</svg>